<mxfile host="app.diagrams.net" modified="2022-04-03T08:17:58.372Z" agent="5.0 (Macintosh; Intel Mac OS X 10_15_7) AppleWebKit/605.1.15 (KHTML, like Gecko) Version/15.4 Safari/605.1.15" etag="y2-kWOAi1l_MwwM9qvGm" version="17.4.0" type="github">
  <diagram id="6oDgEVkb3G0dYZt31TxD" name="Page-1">
    <mxGraphModel dx="2917" dy="2667" grid="1" gridSize="10" guides="1" tooltips="1" connect="1" arrows="1" fold="1" page="1" pageScale="1" pageWidth="850" pageHeight="1100" math="0" shadow="0">
      <root>
        <mxCell id="0" />
        <mxCell id="1" parent="0" />
        <mxCell id="-J-nYcljLcr5aQcuRWhF-20" value="" style="rounded=0;whiteSpace=wrap;html=1;fontSize=12;" vertex="1" parent="1">
          <mxGeometry x="100" y="490" width="470" height="290" as="geometry" />
        </mxCell>
        <mxCell id="2gLC2EfKz5ei1ZDdkJLl-1" value="&lt;span style=&quot;white-space: pre&quot;&gt; Keyword&lt;br&gt;1. 15Puzzle&lt;br&gt;2. Group Theory&lt;br/&gt;3. Topology&lt;br&gt;&lt;/span&gt;" style="rounded=0;whiteSpace=wrap;html=1;align=left;spacingLeft=10;" parent="1" vertex="1">
          <mxGeometry x="1250" y="90" width="180" height="100" as="geometry" />
        </mxCell>
        <mxCell id="2gLC2EfKz5ei1ZDdkJLl-32" value="" style="group" parent="1" vertex="1" connectable="0">
          <mxGeometry x="1790" y="140" width="400" height="90" as="geometry" />
        </mxCell>
        <mxCell id="2gLC2EfKz5ei1ZDdkJLl-29" value="Goal:&amp;nbsp;Arranging Grid in pre-determine order." style="rounded=0;whiteSpace=wrap;html=1;fontSize=12;fillColor=#FFFFFF;align=left;spacingLeft=10;" parent="2gLC2EfKz5ei1ZDdkJLl-32" vertex="1">
          <mxGeometry width="400" height="20" as="geometry" />
        </mxCell>
        <mxCell id="2gLC2EfKz5ei1ZDdkJLl-30" value="&lt;span style=&quot;white-space: pre&quot;&gt; Type of Pre-Determine Order Property&lt;/span&gt;&lt;br style=&quot;font-size: 12px&quot;&gt;&lt;span style=&quot;white-space: pre&quot;&gt;1. Index Order (15-Puzzle)&lt;/span&gt;&lt;br&gt;&lt;span style=&quot;white-space: pre&quot;&gt;2. Every elements in a column, row and/or group is unique. (SUDOKU)&lt;/span&gt;&lt;br style=&quot;font-size: 12px&quot;&gt;&lt;span style=&quot;white-space: pre&quot;&gt;3. Continuous Image Order (Image Puzzle)&lt;br&gt;&lt;/span&gt;" style="rounded=0;whiteSpace=wrap;html=1;fontSize=12;fillColor=#FFFFFF;align=left;spacingLeft=10;" parent="2gLC2EfKz5ei1ZDdkJLl-32" vertex="1">
          <mxGeometry y="20" width="400" height="70" as="geometry" />
        </mxCell>
        <mxCell id="wigdRvOD5uhrK0sEMZyR-2" value="&lt;span&gt; How to use?&lt;br&gt;1. Choose Picture&lt;br&gt;2. Choose/Edit Game Mode.&lt;br&gt;3. Solve by yourself or Watch Ai play.&lt;br&gt;4. Finish, Reset&lt;br&gt;//fHELP&lt;br&gt;//fPERFORMANCE&lt;br&gt;&lt;/span&gt;" style="rounded=0;whiteSpace=wrap;html=1;align=left;spacingLeft=10;" parent="1" vertex="1">
          <mxGeometry x="60" y="150" width="310" height="120" as="geometry" />
        </mxCell>
        <mxCell id="wigdRvOD5uhrK0sEMZyR-3" value="&lt;span&gt; Components of Puzzle and Game:&lt;br&gt;Noun Verbs Object in an Environment under the Laws for Goal.&lt;br&gt;1. Noun and/or Verb = AI&lt;br&gt;1.1. Noun=Player&lt;br&gt;1.2. Verbs=Operation/Algorithm&lt;br&gt;//In most case, player and algorithm are the same part.&lt;br&gt;2. Object in an Environment=Object, Situation and/or Environment&lt;br&gt;3. Laws = Rules, Logical Rules, Physics and/or Limitation&lt;br&gt;4. Goal = Purpose/Achievement&lt;br&gt;&lt;/span&gt;&lt;span&gt;5. How2Use&lt;/span&gt;&lt;br&gt;&lt;span&gt;6. frontEnd Design&lt;/span&gt;&lt;br&gt;&lt;span&gt;7. Keyword &amp;amp; Sub project list.&lt;/span&gt;&lt;span&gt;&lt;br&gt;&lt;/span&gt;" style="rounded=0;whiteSpace=wrap;html=1;align=left;spacingLeft=10;" parent="1" vertex="1">
          <mxGeometry x="470" y="50" width="380" height="180" as="geometry" />
        </mxCell>
        <mxCell id="-J-nYcljLcr5aQcuRWhF-3" value="" style="group" vertex="1" connectable="0" parent="1">
          <mxGeometry x="310" y="545.53" width="140" height="140" as="geometry" />
        </mxCell>
        <mxCell id="2gLC2EfKz5ei1ZDdkJLl-37" value="1" style="whiteSpace=wrap;html=1;aspect=fixed;fontSize=12;fillColor=#FFFFFF;" parent="-J-nYcljLcr5aQcuRWhF-3" vertex="1">
          <mxGeometry width="35" height="35" as="geometry" />
        </mxCell>
        <mxCell id="2gLC2EfKz5ei1ZDdkJLl-39" value="2" style="whiteSpace=wrap;html=1;aspect=fixed;fontSize=12;fillColor=#FFFFFF;" parent="-J-nYcljLcr5aQcuRWhF-3" vertex="1">
          <mxGeometry x="35" width="35" height="35" as="geometry" />
        </mxCell>
        <mxCell id="2gLC2EfKz5ei1ZDdkJLl-40" value="3" style="whiteSpace=wrap;html=1;aspect=fixed;fontSize=12;fillColor=#FFFFFF;" parent="-J-nYcljLcr5aQcuRWhF-3" vertex="1">
          <mxGeometry x="70" width="35" height="35" as="geometry" />
        </mxCell>
        <mxCell id="2gLC2EfKz5ei1ZDdkJLl-41" value="4" style="whiteSpace=wrap;html=1;aspect=fixed;fontSize=12;fillColor=#FFFFFF;" parent="-J-nYcljLcr5aQcuRWhF-3" vertex="1">
          <mxGeometry x="105" width="35" height="35" as="geometry" />
        </mxCell>
        <mxCell id="2gLC2EfKz5ei1ZDdkJLl-42" value="5" style="whiteSpace=wrap;html=1;aspect=fixed;fontSize=12;fillColor=#FFFFFF;" parent="-J-nYcljLcr5aQcuRWhF-3" vertex="1">
          <mxGeometry y="35" width="35" height="35" as="geometry" />
        </mxCell>
        <mxCell id="2gLC2EfKz5ei1ZDdkJLl-43" value="6" style="whiteSpace=wrap;html=1;aspect=fixed;fontSize=12;fillColor=#FFFFFF;" parent="-J-nYcljLcr5aQcuRWhF-3" vertex="1">
          <mxGeometry x="35" y="35" width="35" height="35" as="geometry" />
        </mxCell>
        <mxCell id="2gLC2EfKz5ei1ZDdkJLl-51" value="7" style="whiteSpace=wrap;html=1;aspect=fixed;fontSize=12;fillColor=#FFFFFF;" parent="-J-nYcljLcr5aQcuRWhF-3" vertex="1">
          <mxGeometry x="70" y="35" width="35" height="35" as="geometry" />
        </mxCell>
        <mxCell id="2gLC2EfKz5ei1ZDdkJLl-52" value="8" style="whiteSpace=wrap;html=1;aspect=fixed;fontSize=12;fillColor=#FFFFFF;" parent="-J-nYcljLcr5aQcuRWhF-3" vertex="1">
          <mxGeometry x="105" y="35" width="35" height="35" as="geometry" />
        </mxCell>
        <mxCell id="2gLC2EfKz5ei1ZDdkJLl-54" value="15" style="whiteSpace=wrap;html=1;aspect=fixed;fontSize=12;fillColor=#FFFFFF;" parent="-J-nYcljLcr5aQcuRWhF-3" vertex="1">
          <mxGeometry x="70" y="105" width="35" height="35" as="geometry" />
        </mxCell>
        <mxCell id="2gLC2EfKz5ei1ZDdkJLl-55" value="14" style="whiteSpace=wrap;html=1;aspect=fixed;fontSize=12;fillColor=#FFFFFF;" parent="-J-nYcljLcr5aQcuRWhF-3" vertex="1">
          <mxGeometry x="35" y="105" width="35" height="35" as="geometry" />
        </mxCell>
        <mxCell id="2gLC2EfKz5ei1ZDdkJLl-56" value="13" style="whiteSpace=wrap;html=1;aspect=fixed;fontSize=12;fillColor=#FFFFFF;" parent="-J-nYcljLcr5aQcuRWhF-3" vertex="1">
          <mxGeometry y="105" width="35" height="35" as="geometry" />
        </mxCell>
        <mxCell id="2gLC2EfKz5ei1ZDdkJLl-57" value="9" style="whiteSpace=wrap;html=1;aspect=fixed;fontSize=12;fillColor=#FFFFFF;" parent="-J-nYcljLcr5aQcuRWhF-3" vertex="1">
          <mxGeometry y="70" width="35" height="35" as="geometry" />
        </mxCell>
        <mxCell id="2gLC2EfKz5ei1ZDdkJLl-58" value="10" style="whiteSpace=wrap;html=1;aspect=fixed;fontSize=12;fillColor=#FFFFFF;" parent="-J-nYcljLcr5aQcuRWhF-3" vertex="1">
          <mxGeometry x="35" y="70" width="35" height="35" as="geometry" />
        </mxCell>
        <mxCell id="2gLC2EfKz5ei1ZDdkJLl-59" value="11" style="whiteSpace=wrap;html=1;aspect=fixed;fontSize=12;fillColor=#FFFFFF;" parent="-J-nYcljLcr5aQcuRWhF-3" vertex="1">
          <mxGeometry x="70" y="70" width="35" height="35" as="geometry" />
        </mxCell>
        <mxCell id="2gLC2EfKz5ei1ZDdkJLl-60" value="12" style="whiteSpace=wrap;html=1;aspect=fixed;fontSize=12;fillColor=#FFFFFF;" parent="-J-nYcljLcr5aQcuRWhF-3" vertex="1">
          <mxGeometry x="105" y="70" width="35" height="35" as="geometry" />
        </mxCell>
        <mxCell id="-J-nYcljLcr5aQcuRWhF-2" value="&amp;nbsp;16" style="whiteSpace=wrap;html=1;aspect=fixed;fontSize=12;fillColor=#FFFFFF;" vertex="1" parent="-J-nYcljLcr5aQcuRWhF-3">
          <mxGeometry x="105" y="105" width="35" height="35" as="geometry" />
        </mxCell>
        <mxCell id="-J-nYcljLcr5aQcuRWhF-8" value="frontEnd" style="edgeStyle=orthogonalEdgeStyle;rounded=0;orthogonalLoop=1;jettySize=auto;html=1;fontSize=12;" edge="1" parent="1" source="-J-nYcljLcr5aQcuRWhF-7">
          <mxGeometry relative="1" as="geometry">
            <mxPoint x="565" y="620" as="targetPoint" />
          </mxGeometry>
        </mxCell>
        <mxCell id="-J-nYcljLcr5aQcuRWhF-10" value="How2Use?" style="edgeStyle=orthogonalEdgeStyle;rounded=0;orthogonalLoop=1;jettySize=auto;html=1;exitX=0;exitY=0;exitDx=0;exitDy=0;fontSize=12;" edge="1" parent="1" source="-J-nYcljLcr5aQcuRWhF-7" target="wigdRvOD5uhrK0sEMZyR-2">
          <mxGeometry relative="1" as="geometry" />
        </mxCell>
        <mxCell id="-J-nYcljLcr5aQcuRWhF-11" value="KeyWord and Subproject List" style="edgeStyle=orthogonalEdgeStyle;rounded=0;orthogonalLoop=1;jettySize=auto;html=1;exitX=0.5;exitY=0;exitDx=0;exitDy=0;entryX=0.5;entryY=1;entryDx=0;entryDy=0;fontSize=12;" edge="1" parent="1" source="-J-nYcljLcr5aQcuRWhF-7" target="2gLC2EfKz5ei1ZDdkJLl-1">
          <mxGeometry relative="1" as="geometry" />
        </mxCell>
        <mxCell id="-J-nYcljLcr5aQcuRWhF-12" value="Goal" style="edgeStyle=orthogonalEdgeStyle;rounded=0;orthogonalLoop=1;jettySize=auto;html=1;exitX=1;exitY=0;exitDx=0;exitDy=0;fontSize=12;entryX=0;entryY=0.5;entryDx=0;entryDy=0;" edge="1" parent="1" source="-J-nYcljLcr5aQcuRWhF-7" target="2gLC2EfKz5ei1ZDdkJLl-30">
          <mxGeometry relative="1" as="geometry">
            <mxPoint x="1670" y="200" as="targetPoint" />
          </mxGeometry>
        </mxCell>
        <mxCell id="-J-nYcljLcr5aQcuRWhF-15" value="Object in an Environment" style="edgeStyle=orthogonalEdgeStyle;rounded=0;orthogonalLoop=1;jettySize=auto;html=1;exitX=1;exitY=0.5;exitDx=0;exitDy=0;fontSize=12;entryX=0;entryY=0.75;entryDx=0;entryDy=0;" edge="1" parent="1" source="-J-nYcljLcr5aQcuRWhF-7" target="2gLC2EfKz5ei1ZDdkJLl-21">
          <mxGeometry relative="1" as="geometry">
            <mxPoint x="1850" y="565" as="targetPoint" />
          </mxGeometry>
        </mxCell>
        <mxCell id="-J-nYcljLcr5aQcuRWhF-16" value="Law" style="edgeStyle=orthogonalEdgeStyle;rounded=0;orthogonalLoop=1;jettySize=auto;html=1;entryX=0.75;entryY=0;entryDx=0;entryDy=0;fontSize=12;exitX=1;exitY=1;exitDx=0;exitDy=0;" edge="1" parent="1" source="-J-nYcljLcr5aQcuRWhF-7" target="2gLC2EfKz5ei1ZDdkJLl-31">
          <mxGeometry relative="1" as="geometry" />
        </mxCell>
        <mxCell id="-J-nYcljLcr5aQcuRWhF-23" value="AI" style="edgeStyle=orthogonalEdgeStyle;rounded=0;orthogonalLoop=1;jettySize=auto;html=1;exitX=0;exitY=1;exitDx=0;exitDy=0;fontSize=12;" edge="1" parent="1" source="-J-nYcljLcr5aQcuRWhF-7">
          <mxGeometry relative="1" as="geometry">
            <mxPoint x="800" y="840" as="targetPoint" />
            <Array as="points">
              <mxPoint x="1200" y="715" />
              <mxPoint x="800" y="715" />
              <mxPoint x="800" y="740" />
            </Array>
          </mxGeometry>
        </mxCell>
        <mxCell id="-J-nYcljLcr5aQcuRWhF-7" value="ImagePuzzle" style="rounded=0;whiteSpace=wrap;html=1;fontSize=40;" vertex="1" parent="1">
          <mxGeometry x="1200" y="550" width="280" height="140" as="geometry" />
        </mxCell>
        <mxCell id="-J-nYcljLcr5aQcuRWhF-17" value="" style="group" vertex="1" connectable="0" parent="1">
          <mxGeometry x="1320" y="900" width="980" height="160" as="geometry" />
        </mxCell>
        <mxCell id="2gLC2EfKz5ei1ZDdkJLl-31" value="&lt;span style=&quot;white-space: pre&quot;&gt; Possible Operation&lt;br&gt;1. Re-Positioning Grids&lt;br&gt;2. Sliding Grids&lt;br&gt;3. Rotating Grids&lt;br&gt;4. Moving Row/Column&lt;br&gt;5. Rotating Surrounding Grids&lt;br&gt;6. Replacing Grids&lt;br&gt;7. Reverse Grids&lt;br&gt;8. Reverse Group of Grids&lt;br&gt;?. ...etc&lt;br&gt;//Player can do at least one thing in this list.&lt;br&gt;&lt;/span&gt;" style="rounded=0;whiteSpace=wrap;html=1;fontSize=12;fillColor=#FFFFFF;align=left;spacingLeft=10;" parent="-J-nYcljLcr5aQcuRWhF-17" vertex="1">
          <mxGeometry width="400" height="160" as="geometry" />
        </mxCell>
        <mxCell id="wigdRvOD5uhrK0sEMZyR-1" value="" style="group" parent="-J-nYcljLcr5aQcuRWhF-17" vertex="1" connectable="0">
          <mxGeometry x="400" width="580" height="160" as="geometry" />
        </mxCell>
        <mxCell id="2gLC2EfKz5ei1ZDdkJLl-36" value="&lt;span style=&quot;white-space: pre&quot;&gt; Verb/Operation&lt;br&gt;1. Re-Position&lt;br&gt;2. Sliding&lt;br&gt;3. Rotating&lt;br&gt;4. Moving&lt;br&gt;5. Reversing&lt;br&gt;&lt;/span&gt;" style="rounded=0;whiteSpace=wrap;html=1;fontSize=12;fillColor=#FFFFFF;align=left;spacingLeft=10;" parent="wigdRvOD5uhrK0sEMZyR-1" vertex="1">
          <mxGeometry width="160" height="160" as="geometry" />
        </mxCell>
        <mxCell id="2gLC2EfKz5ei1ZDdkJLl-38" value="&lt;span style=&quot;white-space: pre&quot;&gt;&lt;span style=&quot;white-space: pre&quot;&gt; Object&lt;br&gt;&lt;/span&gt;1. Individual Grid&lt;br&gt;2. Surrounding Grids&lt;br&gt;3. &lt;/span&gt;&lt;span style=&quot;white-space: pre&quot;&gt;Column/Row/Line Grids&lt;/span&gt;&lt;br&gt;&lt;span style=&quot;white-space: pre&quot;&gt;4. Grid Group. (Grids that stay near a particular location.)&lt;/span&gt;&lt;br&gt;&lt;span style=&quot;white-space: pre&quot;&gt;5. Grids Set. (Grids that previously stay near a particular location.)&lt;br&gt;&lt;/span&gt;" style="rounded=0;whiteSpace=wrap;html=1;fontSize=12;fillColor=#FFFFFF;align=left;spacingLeft=10;" parent="wigdRvOD5uhrK0sEMZyR-1" vertex="1">
          <mxGeometry x="160" width="420" height="160" as="geometry" />
        </mxCell>
        <mxCell id="2gLC2EfKz5ei1ZDdkJLl-33" value="" style="group" parent="1" vertex="1" connectable="0">
          <mxGeometry x="1810" y="545.53" width="600" height="148.94" as="geometry" />
        </mxCell>
        <mxCell id="2gLC2EfKz5ei1ZDdkJLl-28" value="Shape Grids" style="rounded=1;whiteSpace=wrap;html=1;fontSize=12;fillColor=#FFFFFF;spacingTop=-10;" parent="2gLC2EfKz5ei1ZDdkJLl-33" vertex="1">
          <mxGeometry width="600" height="22.341" as="geometry" />
        </mxCell>
        <mxCell id="2gLC2EfKz5ei1ZDdkJLl-19" value="Discrete" style="rounded=0;whiteSpace=wrap;html=1;fontSize=12;fillColor=#FFFFFF;" parent="2gLC2EfKz5ei1ZDdkJLl-33" vertex="1">
          <mxGeometry x="200" y="14.894" width="200" height="14.894" as="geometry" />
        </mxCell>
        <mxCell id="2gLC2EfKz5ei1ZDdkJLl-20" value="Continuous" style="rounded=0;whiteSpace=wrap;html=1;fontSize=12;fillColor=#FFFFFF;" parent="2gLC2EfKz5ei1ZDdkJLl-33" vertex="1">
          <mxGeometry x="400" y="14.894" width="200" height="14.894" as="geometry" />
        </mxCell>
        <mxCell id="2gLC2EfKz5ei1ZDdkJLl-21" value="Euclidean" style="rounded=0;whiteSpace=wrap;html=1;fontSize=12;fillColor=#FFFFFF;" parent="2gLC2EfKz5ei1ZDdkJLl-33" vertex="1">
          <mxGeometry y="29.788" width="200" height="59.576" as="geometry" />
        </mxCell>
        <mxCell id="2gLC2EfKz5ei1ZDdkJLl-22" value="Non Euclidean" style="rounded=0;whiteSpace=wrap;html=1;fontSize=12;fillColor=#FFFFFF;" parent="2gLC2EfKz5ei1ZDdkJLl-33" vertex="1">
          <mxGeometry y="89.364" width="200" height="59.576" as="geometry" />
        </mxCell>
        <mxCell id="2gLC2EfKz5ei1ZDdkJLl-23" value="1. Squares&lt;br style=&quot;font-size: 12px;&quot;&gt;2. Triangles&lt;br style=&quot;font-size: 12px;&quot;&gt;3. Hexagon" style="rounded=0;whiteSpace=wrap;html=1;fontSize=12;fillColor=#FFFFFF;align=left;spacingLeft=10;" parent="2gLC2EfKz5ei1ZDdkJLl-33" vertex="1">
          <mxGeometry x="200" y="29.788" width="200" height="59.576" as="geometry" />
        </mxCell>
        <mxCell id="2gLC2EfKz5ei1ZDdkJLl-24" value="1. Pentagon&lt;br style=&quot;font-size: 12px&quot;&gt;2. Squares&lt;br style=&quot;font-size: 12px&quot;&gt;3. ???" style="rounded=0;whiteSpace=wrap;html=1;fontSize=12;fillColor=#FFFFFF;align=left;spacingLeft=10;" parent="2gLC2EfKz5ei1ZDdkJLl-33" vertex="1">
          <mxGeometry x="200" y="89.364" width="200" height="59.576" as="geometry" />
        </mxCell>
        <mxCell id="2gLC2EfKz5ei1ZDdkJLl-25" value="???" style="rounded=0;whiteSpace=wrap;html=1;fontSize=12;fillColor=#FFFFFF;align=left;spacingLeft=10;" parent="2gLC2EfKz5ei1ZDdkJLl-33" vertex="1">
          <mxGeometry x="400" y="29.788" width="200" height="59.576" as="geometry" />
        </mxCell>
        <mxCell id="2gLC2EfKz5ei1ZDdkJLl-26" value="???" style="rounded=0;whiteSpace=wrap;html=1;fontSize=12;fillColor=#FFFFFF;align=left;spacingLeft=10;" parent="2gLC2EfKz5ei1ZDdkJLl-33" vertex="1">
          <mxGeometry x="400" y="89.364" width="200" height="59.576" as="geometry" />
        </mxCell>
        <mxCell id="2gLC2EfKz5ei1ZDdkJLl-27" value="" style="rounded=0;whiteSpace=wrap;html=1;fontSize=12;fillColor=#FFFFFF;" parent="2gLC2EfKz5ei1ZDdkJLl-33" vertex="1">
          <mxGeometry y="14.894" width="200" height="14.894" as="geometry" />
        </mxCell>
        <mxCell id="-J-nYcljLcr5aQcuRWhF-24" value="???" style="rounded=0;whiteSpace=wrap;html=1;fontSize=12;align=left;spacingLeft=10;" vertex="1" parent="1">
          <mxGeometry x="710" y="840" width="170" height="230" as="geometry" />
        </mxCell>
      </root>
    </mxGraphModel>
  </diagram>
</mxfile>
